<svg width="512" height="512" viewBox="0 0 100 100" fill="none" xmlns="http://www.w3.org/2000/svg">
    <defs>
        <linearGradient id="trailGrad-favicon" x1="14" y1="84" x2="88" y2="18" gradientUnits="userSpaceOnUse">
            <stop offset="0%" stopColor="#06b6d4" />
            <stop offset="35%" stopColor="#3b82f6" />
            <stop offset="70%" stopColor="#7c3aed" />
            <stop offset="100%" stopColor="#ec4899" />
        </linearGradient>
        <filter id="haloGlow-favicon" x="-30%" y="-30%" width="160%" height="160%">
            <feGaussianBlur stdDeviation="3.5" result="blur" />
            <feComposite in="SourceGraphic" in2="blur" operator="over" />
        </filter>
    </defs>
    <circle cx="50" cy="50" r="38" fill="url(#trailGrad-favicon)" opacity="0.2" filter="url(#haloGlow-favicon)" />
    <path d="M 20 78 C 14 62, 28 44, 46 44 C 64 44, 82 56, 84 72 C 86 86, 68 90, 52 82 C 34 72, 38 48, 50 32" stroke="#0f172a" strokeWidth="11" strokeLinecap="round" strokeLinejoin="round" opacity="0.12" />
    <path d="M 18 76 C 12 58, 28 40, 48 40 C 66 40, 84 54, 84 70 C 84 84, 68 88, 52 80 C 34 70, 36 46, 50 28" stroke="url(#trailGrad-favicon)" strokeWidth="9" strokeLinecap="round" strokeLinejoin="round" />
    <path d="M 22 72 C 18 58, 30 43, 48 43 C 64 43, 79 54, 80 66" stroke="#ffffff" strokeWidth="2.4" strokeLinecap="round" opacity="0.8" />
</svg>
